<svg width="60" height="60" viewBox="0 0 60 60" fill="none" xmlns="http://www.w3.org/2000/svg">
<path d="M25.3193 0C20.0823 3.00394 15.8308 7.80507 13.5908 13.9277L4.53418 38.6816L51.958 56.0322C48.6225 58.5241 44.4837 60 40 60H20C8.95431 60 3.2215e-07 51.0457 0 40V20C0 8.95431 8.95431 3.22129e-07 20 0H25.3193ZM21.4648 48.0059C20.0708 51.8167 22.0301 56.0364 25.8408 57.4307C29.6517 58.8248 33.8714 56.8655 35.2656 53.0547L21.4648 48.0059ZM19.1104 15.9473C23.0316 5.2289 34.8607 -0.295162 45.5312 3.6084C56.2019 7.51219 61.6733 19.3655 57.752 30.084L50.7158 49.3184L12.0742 35.1816L19.1104 15.9473Z" fill="#FF5542"/>
</svg>
